<mxfile host="app.diagrams.net" modified="2024-03-21T15:41:55.229Z" agent="Mozilla/5.0 (Windows NT 10.0; Win64; x64; rv:124.0) Gecko/20100101 Firefox/124.0" etag="0QE76nbwVdDNycizM9x3" version="24.0.7" type="github">
  <diagram name="Page-1" id="bfe91b75-5d2c-26a0-9c1d-138518896778">
    <mxGraphModel dx="4276" dy="2538" grid="1" gridSize="10" guides="1" tooltips="1" connect="1" arrows="1" fold="1" page="1" pageScale="1" pageWidth="1100" pageHeight="850" background="none" math="0" shadow="0">
      <root>
        <mxCell id="0" />
        <mxCell id="1" parent="0" />
        <mxCell id="Q4sWbmhxobL_tQlkTWw1-44" value="Plataforma IA" style="rounded=1;whiteSpace=wrap;html=1;shadow=0;comic=0;strokeColor=#036897;strokeWidth=2;fillColor=none;fontFamily=Verdana;fontSize=28;fontColor=#6881B3;align=center;arcSize=11;verticalAlign=top;" vertex="1" parent="1">
          <mxGeometry x="1420" y="350" width="760" height="470" as="geometry" />
        </mxCell>
        <mxCell id="7c3789c024ecab99-55" style="edgeStyle=none;html=1;labelBackgroundColor=none;endArrow=none;endFill=0;strokeWidth=2;fontFamily=Verdana;fontSize=28;fontColor=#6881B3;" parent="1" target="7c3789c024ecab99-54" edge="1">
          <mxGeometry relative="1" as="geometry">
            <mxPoint x="1660" y="837.0000000000002" as="targetPoint" />
            <mxPoint x="1590" y="897" as="sourcePoint" />
          </mxGeometry>
        </mxCell>
        <mxCell id="7c3789c024ecab99-52" style="edgeStyle=none;html=1;labelBackgroundColor=none;endArrow=none;endFill=0;strokeWidth=2;fontFamily=Verdana;fontSize=15;fontColor=#036897;" parent="1" target="7c3789c024ecab99-8" edge="1">
          <mxGeometry relative="1" as="geometry">
            <mxPoint x="1549.9999999999995" y="917" as="targetPoint" />
            <mxPoint x="1400" y="897" as="sourcePoint" />
          </mxGeometry>
        </mxCell>
        <mxCell id="7c3789c024ecab99-77" style="edgeStyle=none;html=1;labelBackgroundColor=none;endArrow=none;endFill=0;strokeWidth=2;fontFamily=Verdana;fontSize=28;fontColor=#6881B3;" parent="1" target="7c3789c024ecab99-76" edge="1">
          <mxGeometry relative="1" as="geometry">
            <mxPoint x="1704.8617511520733" y="912" as="sourcePoint" />
          </mxGeometry>
        </mxCell>
        <mxCell id="Q4sWbmhxobL_tQlkTWw1-11" value="Buque" style="rounded=1;whiteSpace=wrap;html=1;shadow=0;comic=0;strokeColor=#036897;strokeWidth=2;fillColor=none;fontFamily=Verdana;fontSize=28;fontColor=#6881B3;align=center;arcSize=11;verticalAlign=top;" vertex="1" parent="1">
          <mxGeometry x="270" y="975" width="680" height="350" as="geometry" />
        </mxCell>
        <mxCell id="Q4sWbmhxobL_tQlkTWw1-18" value="Sensor" style="rounded=1;whiteSpace=wrap;html=1;shadow=0;comic=0;strokeColor=#036897;strokeWidth=2;fillColor=none;fontFamily=Verdana;fontSize=28;fontColor=#6881B3;align=center;arcSize=11;verticalAlign=top;" vertex="1" parent="1">
          <mxGeometry x="270" y="1345" width="700" height="275" as="geometry" />
        </mxCell>
        <mxCell id="7c3789c024ecab99-78" value="App Móvil Capitán" style="rounded=1;whiteSpace=wrap;html=1;shadow=0;comic=0;strokeColor=#036897;strokeWidth=2;fillColor=none;fontFamily=Verdana;fontSize=28;fontColor=#6881B3;align=center;arcSize=11;verticalAlign=top;" parent="1" vertex="1">
          <mxGeometry x="50" y="535" width="680" height="350" as="geometry" />
        </mxCell>
        <mxCell id="7c3789c024ecab99-11" value="" style="html=1;fillColor=#CCCCCC;strokeColor=#6881B3;gradientColor=none;gradientDirection=north;strokeWidth=2;shape=mxgraph.networks.comm_link_edge;html=1;labelBackgroundColor=none;endArrow=none;endFill=0;fontFamily=Verdana;fontSize=20;" parent="1" edge="1">
          <mxGeometry width="100" height="100" relative="1" as="geometry">
            <mxPoint x="1000" y="751" as="sourcePoint" />
            <mxPoint x="700" y="685" as="targetPoint" />
          </mxGeometry>
        </mxCell>
        <mxCell id="7c3789c024ecab99-12" value="" style="fontColor=#0066CC;verticalAlign=top;verticalLabelPosition=bottom;labelPosition=center;align=center;html=1;fillColor=#CCCCCC;strokeColor=#6881B3;gradientColor=none;gradientDirection=north;strokeWidth=2;shape=mxgraph.networks.mobile;rounded=0;shadow=0;comic=0;" parent="1" vertex="1">
          <mxGeometry x="572.5000000000002" y="635" width="50" height="100" as="geometry" />
        </mxCell>
        <mxCell id="7c3789c024ecab99-53" value="Internet" style="html=1;fillColor=#CCCCCC;strokeColor=#6881B3;gradientColor=none;gradientDirection=north;strokeWidth=2;shape=mxgraph.networks.cloud;fontColor=#6881B3;rounded=0;shadow=0;comic=0;align=center;fontSize=28;" parent="1" vertex="1">
          <mxGeometry x="1010" y="655" width="330" height="140" as="geometry" />
        </mxCell>
        <mxCell id="7c3789c024ecab99-58" value="" style="fontColor=#0066CC;verticalAlign=top;verticalLabelPosition=bottom;labelPosition=center;align=center;html=1;fillColor=#CCCCCC;strokeColor=#6881B3;gradientColor=none;gradientDirection=north;strokeWidth=2;shape=mxgraph.networks.server_storage;rounded=0;shadow=0;comic=0;" parent="1" vertex="1">
          <mxGeometry x="2070" y="400" width="105" height="105" as="geometry" />
        </mxCell>
        <mxCell id="Q4sWbmhxobL_tQlkTWw1-6" value="$G/5G" style="text;html=1;align=center;verticalAlign=middle;resizable=0;points=[];autosize=1;strokeColor=none;fillColor=none;" vertex="1" parent="1">
          <mxGeometry x="810" y="645" width="60" height="30" as="geometry" />
        </mxCell>
        <mxCell id="Q4sWbmhxobL_tQlkTWw1-7" value="" style="rounded=1;whiteSpace=wrap;html=1;" vertex="1" parent="1">
          <mxGeometry x="170" y="620" width="120" height="60" as="geometry" />
        </mxCell>
        <mxCell id="Q4sWbmhxobL_tQlkTWw1-8" value="" style="rounded=1;whiteSpace=wrap;html=1;" vertex="1" parent="1">
          <mxGeometry x="180" y="735" width="120" height="60" as="geometry" />
        </mxCell>
        <mxCell id="Q4sWbmhxobL_tQlkTWw1-9" value="" style="shape=mxgraph.signs.transportation.ship_2;html=1;pointerEvents=1;fillColor=#000000;strokeColor=none;verticalLabelPosition=bottom;verticalAlign=top;align=center;" vertex="1" parent="1">
          <mxGeometry x="561.75" y="1025" width="99" height="98" as="geometry" />
        </mxCell>
        <mxCell id="Q4sWbmhxobL_tQlkTWw1-10" value="Https" style="html=1;fillColor=#CCCCCC;strokeColor=#6881B3;gradientColor=none;gradientDirection=north;strokeWidth=2;shape=mxgraph.networks.comm_link_edge;html=1;labelBackgroundColor=none;endArrow=none;endFill=0;fontFamily=Verdana;fontSize=20;entryX=0.77;entryY=0.17;entryDx=0;entryDy=0;entryPerimeter=0;" edge="1" parent="1" source="7c3789c024ecab99-53" target="Q4sWbmhxobL_tQlkTWw1-9">
          <mxGeometry x="-0.42" y="-73" width="100" height="100" relative="1" as="geometry">
            <mxPoint x="1110" y="1021" as="sourcePoint" />
            <mxPoint x="880" y="1074" as="targetPoint" />
            <Array as="points">
              <mxPoint x="1120" y="1135" />
            </Array>
            <mxPoint y="-1" as="offset" />
          </mxGeometry>
        </mxCell>
        <mxCell id="Q4sWbmhxobL_tQlkTWw1-12" value="" style="image;aspect=fixed;perimeter=ellipsePerimeter;html=1;align=center;shadow=0;dashed=0;fontColor=#4277BB;labelBackgroundColor=default;fontSize=12;spacingTop=3;image=img/lib/ibm/users/sensor.svg;" vertex="1" parent="1">
          <mxGeometry x="849.5" y="1435" width="60" height="60" as="geometry" />
        </mxCell>
        <mxCell id="Q4sWbmhxobL_tQlkTWw1-21" style="edgeStyle=orthogonalEdgeStyle;rounded=0;orthogonalLoop=1;jettySize=auto;html=1;exitX=1;exitY=0.75;exitDx=0;exitDy=0;entryX=0.785;entryY=0.5;entryDx=0;entryDy=0;entryPerimeter=0;" edge="1" parent="1" source="Q4sWbmhxobL_tQlkTWw1-12" target="Q4sWbmhxobL_tQlkTWw1-9">
          <mxGeometry relative="1" as="geometry">
            <mxPoint x="950" y="1310" as="targetPoint" />
            <Array as="points">
              <mxPoint x="940" y="1477" />
              <mxPoint x="940" y="1040" />
              <mxPoint x="640" y="1040" />
            </Array>
          </mxGeometry>
        </mxCell>
        <mxCell id="Q4sWbmhxobL_tQlkTWw1-30" value="" style="group" vertex="1" connectable="0" parent="1">
          <mxGeometry x="-430" y="1220" width="322.5" height="260" as="geometry" />
        </mxCell>
        <mxCell id="Q4sWbmhxobL_tQlkTWw1-31" value="&lt;div&gt;GPS&lt;/div&gt;&lt;div&gt;&amp;nbsp;(Sistema Externo)&lt;/div&gt;" style="rounded=1;whiteSpace=wrap;html=1;shadow=0;comic=0;strokeColor=#036897;strokeWidth=2;fillColor=none;fontFamily=Verdana;fontSize=28;fontColor=#6881B3;align=center;arcSize=11;verticalAlign=top;" vertex="1" parent="Q4sWbmhxobL_tQlkTWw1-30">
          <mxGeometry width="322.5" height="260" as="geometry" />
        </mxCell>
        <mxCell id="Q4sWbmhxobL_tQlkTWw1-32" value="" style="fontColor=#0066CC;verticalAlign=top;verticalLabelPosition=bottom;labelPosition=center;align=center;html=1;outlineConnect=0;fillColor=#CCCCCC;strokeColor=#6881B3;gradientColor=none;gradientDirection=north;strokeWidth=2;shape=mxgraph.networks.satellite;" vertex="1" parent="Q4sWbmhxobL_tQlkTWw1-30">
          <mxGeometry x="140" y="80" width="100" height="100" as="geometry" />
        </mxCell>
        <mxCell id="Q4sWbmhxobL_tQlkTWw1-33" value="GNSS" style="html=1;fillColor=#CCCCCC;strokeColor=#6881B3;gradientColor=none;gradientDirection=north;strokeWidth=2;shape=mxgraph.networks.comm_link_edge;html=1;labelBackgroundColor=none;endArrow=none;endFill=0;fontFamily=Verdana;fontSize=20;entryX=1;entryY=0;entryDx=0;entryDy=0;" edge="1" parent="1" target="Q4sWbmhxobL_tQlkTWw1-31">
          <mxGeometry x="0.8085" width="100" height="100" relative="1" as="geometry">
            <mxPoint x="280" y="1170" as="sourcePoint" />
            <mxPoint x="1060" y="1525" as="targetPoint" />
            <Array as="points">
              <mxPoint x="1040" y="1525" />
            </Array>
            <mxPoint as="offset" />
          </mxGeometry>
        </mxCell>
        <mxCell id="Q4sWbmhxobL_tQlkTWw1-34" value="Text" style="edgeLabel;html=1;align=center;verticalAlign=middle;resizable=0;points=[];" vertex="1" connectable="0" parent="Q4sWbmhxobL_tQlkTWw1-33">
          <mxGeometry x="0.0233" y="23" relative="1" as="geometry">
            <mxPoint x="1" as="offset" />
          </mxGeometry>
        </mxCell>
        <mxCell id="Q4sWbmhxobL_tQlkTWw1-39" value="Text" style="edgeLabel;html=1;align=center;verticalAlign=middle;resizable=0;points=[];" vertex="1" connectable="0" parent="Q4sWbmhxobL_tQlkTWw1-33">
          <mxGeometry x="-0.1129" y="-4" relative="1" as="geometry">
            <mxPoint x="-1" y="1" as="offset" />
          </mxGeometry>
        </mxCell>
        <mxCell id="Q4sWbmhxobL_tQlkTWw1-41" value="" style="shape=mxgraph.cisco.wireless.wireless_transport;html=1;pointerEvents=1;dashed=0;fillColor=#036897;strokeColor=#ffffff;strokeWidth=2;verticalLabelPosition=bottom;verticalAlign=top;align=center;outlineConnect=0;" vertex="1" parent="1">
          <mxGeometry x="853" y="1515" width="77" height="54" as="geometry" />
        </mxCell>
        <mxCell id="Q4sWbmhxobL_tQlkTWw1-46" value="Operador" style="rounded=1;whiteSpace=wrap;html=1;shadow=0;comic=0;strokeColor=#036897;strokeWidth=2;fillColor=none;fontFamily=Verdana;fontSize=28;fontColor=#6881B3;align=center;arcSize=11;verticalAlign=top;" vertex="1" parent="1">
          <mxGeometry x="70" width="1320" height="470" as="geometry" />
        </mxCell>
        <mxCell id="Q4sWbmhxobL_tQlkTWw1-49" value="" style="group" vertex="1" connectable="0" parent="1">
          <mxGeometry x="-830" y="910" width="712.5" height="260" as="geometry" />
        </mxCell>
        <mxCell id="Q4sWbmhxobL_tQlkTWw1-29" value="" style="group" vertex="1" connectable="0" parent="Q4sWbmhxobL_tQlkTWw1-49">
          <mxGeometry x="390" width="322.5" height="260" as="geometry" />
        </mxCell>
        <mxCell id="Q4sWbmhxobL_tQlkTWw1-24" value="&lt;div&gt;Datos Meteorológicos&lt;/div&gt;&lt;div&gt;&amp;nbsp;(Sistema Externo)&lt;/div&gt;" style="rounded=1;whiteSpace=wrap;html=1;shadow=0;comic=0;strokeColor=#036897;strokeWidth=2;fillColor=none;fontFamily=Verdana;fontSize=28;fontColor=#6881B3;align=center;arcSize=11;verticalAlign=top;" vertex="1" parent="Q4sWbmhxobL_tQlkTWw1-29">
          <mxGeometry width="322.5" height="260" as="geometry" />
        </mxCell>
        <mxCell id="Q4sWbmhxobL_tQlkTWw1-25" value="" style="fontColor=#0066CC;verticalAlign=top;verticalLabelPosition=bottom;labelPosition=center;align=center;html=1;outlineConnect=0;fillColor=#CCCCCC;strokeColor=#6881B3;gradientColor=none;gradientDirection=north;strokeWidth=2;shape=mxgraph.networks.satellite;" vertex="1" parent="Q4sWbmhxobL_tQlkTWw1-29">
          <mxGeometry x="140" y="80" width="100" height="100" as="geometry" />
        </mxCell>
        <mxCell id="Q4sWbmhxobL_tQlkTWw1-28" value="" style="fontColor=#0066CC;verticalAlign=top;verticalLabelPosition=bottom;labelPosition=center;align=center;html=1;outlineConnect=0;fillColor=#CCCCCC;strokeColor=#6881B3;gradientColor=none;gradientDirection=north;strokeWidth=2;shape=mxgraph.networks.mainframe;" vertex="1" parent="Q4sWbmhxobL_tQlkTWw1-29">
          <mxGeometry x="20" y="100" width="80" height="100" as="geometry" />
        </mxCell>
        <mxCell id="Q4sWbmhxobL_tQlkTWw1-43" value="Https" style="html=1;fillColor=#CCCCCC;strokeColor=#6881B3;gradientColor=none;gradientDirection=north;strokeWidth=2;shape=mxgraph.networks.comm_link_edge;html=1;labelBackgroundColor=none;endArrow=none;endFill=0;fontFamily=Verdana;fontSize=20;exitX=1;exitY=0.25;exitDx=0;exitDy=0;entryX=0;entryY=0.25;entryDx=0;entryDy=0;" edge="1" parent="1" source="Q4sWbmhxobL_tQlkTWw1-24" target="Q4sWbmhxobL_tQlkTWw1-11">
          <mxGeometry x="0.4777" y="18" width="100" height="100" relative="1" as="geometry">
            <mxPoint x="-224" y="840" as="sourcePoint" />
            <mxPoint x="-510" y="1119" as="targetPoint" />
            <Array as="points">
              <mxPoint x="-270" y="1180" />
            </Array>
            <mxPoint x="1" as="offset" />
          </mxGeometry>
        </mxCell>
        <mxCell id="Q4sWbmhxobL_tQlkTWw1-54" style="edgeStyle=orthogonalEdgeStyle;rounded=0;orthogonalLoop=1;jettySize=auto;html=1;exitX=0.5;exitY=1;exitDx=0;exitDy=0;" edge="1" parent="1" source="Q4sWbmhxobL_tQlkTWw1-18" target="Q4sWbmhxobL_tQlkTWw1-18">
          <mxGeometry relative="1" as="geometry" />
        </mxCell>
        <mxCell id="Q4sWbmhxobL_tQlkTWw1-55" value="" style="rounded=1;whiteSpace=wrap;html=1;arcSize=0;" vertex="1" parent="1">
          <mxGeometry x="360" y="1150" width="120" height="60" as="geometry" />
        </mxCell>
        <mxCell id="Q4sWbmhxobL_tQlkTWw1-57" value="" style="rounded=1;whiteSpace=wrap;html=1;arcSize=0;" vertex="1" parent="1">
          <mxGeometry x="390" y="1460" width="120" height="60" as="geometry" />
        </mxCell>
      </root>
    </mxGraphModel>
  </diagram>
</mxfile>
